<svg xmlns="http://www.w3.org/2000/svg" xmlns:xlink="http://www.w3.org/1999/xlink" width="40" height="40" viewBox="0 0 62 62">
  <defs>
    <clipPath id="clip-firebase">
      <rect width="62" height="62"></rect>
    </clipPath>
  </defs>
  <g id="firebase" clip-path="url(#clip-firebase)">
    <g id="Group_531" data-name="Group 531" transform="translate(-1.221)">
      <g id="Group_528" data-name="Group 528" transform="translate(11.221 1.72)">
        <path id="a" d="M886.989,1264.864l.27-.526,16.723-31.731-7.431-14.051a1.255,1.255,0,0,0-2.388.434Z" transform="translate(-886.989 -1217.831)" fill="none" stroke="#000" stroke-linecap="round" strokeWidth="3"></path>
      </g>
      <g id="Group_530" data-name="Group 530" transform="translate(28.305 10.001)">
        <path id="c" d="M910.268,1243.106l5.392-5.523-5.392-10.268a1.243,1.243,0,0,0-2.264-.1l-2.98,5.74-.089.294Z" transform="translate(-904.936 -1226.531)" fill="none" stroke="#000" strokeWidth="3"></path>
      </g>
      <path id="Path_554" data-name="Path 554" d="M929.636,1265.711l-5.546-34.159a1.175,1.175,0,0,0-2.038-.744L887.908,1265l18.377,11.537a4.029,4.029,0,0,0,3.927,0l19.423-10.832Z" transform="translate(-875.813 -1216.718)" fill="none" stroke="#000" strokeWidth="3"></path>
    </g>
  </g>
</svg>