<svg xmlns="http://www.w3.org/2000/svg" xmlns:xlink="http://www.w3.org/1999/xlink" width="40" height="40" viewBox="0 0 62 62"> <defs> <clipPath id="clip-java"> <rect width="62" height="62"></rect> </clipPath> </defs> <g id="java" clip-path="url(#clip-java)"> <path id="surface1" d="M28.954-6c3.41,7.892-12.228,12.766-13.682,19.34-1.332,6.039,9.291,13.06,9.3,13.06a47.051,47.051,0,0,1-4.417-8.449C17.419,11.369,36.825,5.415,28.952-6ZM39.34,4.926s-13.72.881-14.418,9.649c-.31,3.906,3.609,5.959,3.72,8.8.093,2.319-2.325,4.262-2.325,4.262s4.4-.838,5.776-4.379c1.525-3.929-2.976-6.584-2.52-9.728.436-3.008,9.766-8.6,9.766-8.6ZM17.79,25.193S5.233,25.015,5.233,28.565c0,3.711,16.437,3.987,28.177,1.7,0,0,3.119-2.145,3.952-2.945-7.693,1.57-25.23,1.744-25.23.388,0-1.25,5.659-2.52,5.659-2.52Zm24.146,0a7.551,7.551,0,0,0-3.76,1.435c2.829-.611,5.232,1.142,5.232,3.138,0,4.5-6.511,8.721-6.511,8.721s10.076-1.144,10.076-8.527a4.432,4.432,0,0,0-5.038-4.767ZM14.769,32.1c-1.929,0-4.806,1.51-4.806,2.945,0,2.882,14.495,5.1,25.23.891l-3.721-2.286C24.2,35.975,10.8,35.214,14.769,32.1Zm1.783,6.471c-2.642,0-4.38,1.595-4.38,2.79,0,3.7,15.768,4.076,22.013.31l-3.953-2.517c-4.665,1.972-16.374,2.271-13.681-.583ZM7.754,41.9c-4.3-.087-7.093,1.845-7.093,3.448,0,8.527,44.027,8.135,44.027-.58,0-1.448-1.672-2.152-2.287-2.48C46,50.618,6.36,49.953,6.36,45.037c0-1.118,2.916-2.189,5.619-1.665L9.692,42.053A15.482,15.482,0,0,0,7.755,41.9Zm41.585,5.735c-6.695,6.346-23.661,8.648-40.733,4.729C25.673,59.349,49.257,55.43,49.339,47.635Z" transform="translate(6.34 6.004)"></path> </g> </svg>
