<svg xmlns="http://www.w3.org/2000/svg" xmlns:xlink="http://www.w3.org/1999/xlink" width="40" height="40" viewBox="0 0 62 62"> <defs> <clipPath id="clip-nextjs"> <rect width="62" height="62"></rect> </clipPath> </defs> <g id="nextjs" clip-path="url(#clip-nextjs)"> <path id="Path_555" data-name="Path 555" d="M1233.629,745.534h11.694v.931H1234.7v7.011h9.988v.931H1234.7v7.7h10.744v.932h-11.816Zm12.741,0h1.243l5.506,7.7,5.627-7.7,7.655-9.777-12.576,18.283,6.481,9h-1.292l-5.9-8.187-5.92,8.187h-1.267l6.529-9-6.09-8.506Zm14.4.931v-.931h13.325v.931h-6.139v16.57h-1.072v-16.57ZM1219,745.534h1.34l18.476,27.709-7.635-10.207-11.061-16.178-.048,16.178H1219Zm54.987,16.289a.39.39,0,1,1,.383-.39.379.379,0,0,1-.383.39Zm1.053-1.026h.574a.524.524,0,0,0,.568.521c.373,0,.584-.225.584-.646V758h.584v2.67a1.081,1.081,0,0,1-1.163,1.2,1.052,1.052,0,0,1-1.147-1.073Zm3.074-.033h.579c.049.358.4.585.9.585.469,0,.813-.243.813-.578,0-.287-.219-.46-.717-.578l-.485-.117c-.68-.16-.991-.49-.991-1.044,0-.673.548-1.12,1.369-1.12a1.228,1.228,0,0,1,1.356,1.083h-.569a.717.717,0,0,0-.795-.565c-.461,0-.769.222-.769.562,0,.27.2.424.689.539l.414.1c.772.181,1.09.495,1.09,1.062,0,.722-.558,1.175-1.45,1.175-.834,0-1.4-.432-1.436-1.107Z" transform="translate(-1219 -723.757)"></path> </g> </svg>
