<svg xmlns="http://www.w3.org/2000/svg" xmlns:xlink="http://www.w3.org/1999/xlink" width="40" height="40" viewBox="0 0 62 62"> <defs> <clipPath id="clip-nodejs"> <rect width="62" height="62"></rect> </clipPath> </defs> <g id="nodejs" clip-path="url(#clip-nodejs)"> <path id="Path_548" data-name="Path 548" d="M29.384,1.709a5.158,5.158,0,0,1,5.057,0l23.233,13.1a4.776,4.776,0,0,1,2.412,4.112v26.26a4.829,4.829,0,0,1-2.59,4.2L34.387,62.416a5.058,5.058,0,0,1-5.133-.142l-6.935-4.007a4.1,4.1,0,0,1-1.338-.963c.295-.4.821-.447,1.249-.622a14.868,14.868,0,0,0,2.735-1.276.627.627,0,0,1,.711.042l5.914,3.42c.422.243.85-.078,1.212-.282l22.69-12.805a.75.75,0,0,0,.412-.739V19.035a.811.811,0,0,0-.486-.811L32.368,5.244a.8.8,0,0,0-.905,0L8.446,18.249a.8.8,0,0,0-.486.807V45.063a.732.732,0,0,0,.418.73l6.151,3.472a4.827,4.827,0,0,0,3.845.515,2.919,2.919,0,0,0,1.889-2.741l.006-25.851a.646.646,0,0,1,.706-.661h2.957a.693.693,0,0,1,.642.788l-.006,26.014c0,2.311-.948,4.824-3.085,5.958a9.51,9.51,0,0,1-8.493-.233L6.376,49.4a4.76,4.76,0,0,1-2.59-4.2V18.936a4.784,4.784,0,0,1,2.493-4.165Zm6.7,18.2c3.359-.194,6.956-.128,9.979,1.527a7.551,7.551,0,0,1,3.68,6.532.7.7,0,0,1-.766.519c-.973,0-1.949.014-2.926-.006-.414.016-.653-.365-.706-.731a4.453,4.453,0,0,0-2.13-3.077c-1.8-.9-3.882-.856-5.843-.837a7.96,7.96,0,0,0-4.182,1.041,2.654,2.654,0,0,0-.881,2.961c.311.745,1.172.984,1.875,1.206,4.05,1.058,8.339.972,12.313,2.347a5.8,5.8,0,0,1,3.816,3.4,7.259,7.259,0,0,1-1.225,6.917,9.817,9.817,0,0,1-5.2,2.805,24.946,24.946,0,0,1-7.854.33,12.391,12.391,0,0,1-6.91-2.6,7.253,7.253,0,0,1-2.334-5.719.658.658,0,0,1,.72-.578h2.918a.686.686,0,0,1,.7.681,4.407,4.407,0,0,0,1.661,3.112c2,1.288,4.5,1.2,6.783,1.235,1.893-.083,4.017-.109,5.563-1.361a3.07,3.07,0,0,0,.837-2.934c-.24-.867-1.168-1.27-1.946-1.556-4-1.264-8.335-.805-12.293-2.237a5.98,5.98,0,0,1-3.778-3.293A6.744,6.744,0,0,1,29.3,22.577c1.751-1.78,4.319-2.467,6.75-2.712Z" transform="translate(-0.785 -1.047)"></path> </g> </svg>
