<svg xmlns="http://www.w3.org/2000/svg" xmlns:xlink="http://www.w3.org/1999/xlink" width="40" height="40" viewBox="0 0 62 62"> <defs> <clipPath id="clip-react"> <rect width="62" height="62"></rect> </clipPath> </defs> <g id="react" clip-path="url(#clip-react)"> <path id="Path_547" data-name="Path 547" d="M88.652,29.779a5.536,5.536,0,1,0,7.563,2.027h0A5.537,5.537,0,0,0,88.652,29.779Zm24.815,6.007q-.546-.623-1.151-1.25.423-.444.819-.888c4.978-5.593,7.079-11.2,5.132-14.574-1.867-3.234-7.42-4.2-14.371-2.846q-1.028.2-2.043.454-.195-.67-.414-1.333C99.081,8.242,95.271,3.619,91.377,3.622c-3.733,0-7.342,4.331-9.644,11.028q-.339.992-.628,2-.68-.167-1.364-.307c-7.335-1.506-13.242-.515-15.185,2.86-1.864,3.235.085,8.524,4.738,13.863q.691.792,1.423,1.549c-.574.592-1.119,1.184-1.626,1.773-4.54,5.263-6.377,10.466-4.517,13.687,1.921,3.328,7.745,4.416,14.835,3.021q.861-.171,1.714-.384.312,1.089.685,2.16c2.291,6.563,5.88,10.753,9.6,10.752,3.842,0,7.694-4.5,10.028-11.342q.276-.812.524-1.68,1.1.275,2.216.486c6.83,1.292,12.253.276,14.11-2.948,1.917-3.33-.06-8.916-4.819-14.352ZM66.851,20.522c1.2-2.077,6.024-2.887,12.357-1.587q.606.125,1.235.279a63.25,63.25,0,0,0-1.306,8.3,64.613,64.613,0,0,0-6.522,5.25q-.681-.7-1.325-1.441h0C67.3,26.749,65.728,22.472,66.851,20.522ZM78.9,38.279c-1.582-1.2-3.053-2.426-4.388-3.661,1.334-1.227,2.806-2.451,4.385-3.646q-.086,1.827-.084,3.656T78.9,38.279Zm0,12.216a22.433,22.433,0,0,1-8.183.289,5.476,5.476,0,0,1-3.847-2.035c-1.128-1.955.347-6.131,4.23-10.633q.732-.848,1.512-1.649a63.426,63.426,0,0,0,6.532,5.27,64.544,64.544,0,0,0,1.321,8.408Q79.685,50.338,78.9,50.495Zm22.014-24.922q-1.56-.983-3.158-1.9-1.572-.906-3.183-1.743c1.838-.772,3.645-1.433,5.39-1.971A56.452,56.452,0,0,1,100.911,25.573ZM84.238,15.511c1.972-5.739,4.891-9.24,7.141-9.241,2.4,0,5.51,3.777,7.546,9.913q.2.6.375,1.207a63.4,63.4,0,0,0-7.834,3.01,62.156,62.156,0,0,0-7.809-3.044Q83.925,16.426,84.238,15.511ZM83,19.924a56.917,56.917,0,0,1,5.362,1.991q-3.258,1.68-6.347,3.662C82.261,23.6,82.592,21.7,83,19.924Zm-.98,23.748q1.541.987,3.126,1.9,1.617.932,3.277,1.784a56.463,56.463,0,0,1-5.407,2.061C82.6,47.613,82.268,45.685,82.017,43.672Zm16.912,9.752a22.442,22.442,0,0,1-3.838,7.233h0a5.47,5.47,0,0,1-3.684,2.315c-2.258,0-5.139-3.363-7.1-8.975q-.346-1-.637-2.009a62.35,62.35,0,0,0,7.84-3.13,64.421,64.421,0,0,0,7.9,3.033Q99.188,52.663,98.929,53.424Zm1.123-4.106c-1.764-.545-3.6-1.216-5.463-2q1.578-.83,3.177-1.752,1.641-.948,3.2-1.944a56.259,56.259,0,0,1-.914,5.7Zm1.384-14.7q0,2.824-.177,5.644c-1.527,1.033-3.14,2.042-4.817,3.011s-3.326,1.851-4.95,2.653q-2.563-1.229-5.027-2.647t-4.789-3q-.213-2.818-.215-5.647h0q0-2.826.211-5.647c1.527-1.043,3.127-2.052,4.782-3.007s3.339-1.843,5.006-2.643q2.532,1.23,4.972,2.637t4.8,2.972q.2,2.835.2,5.678ZM104.4,18.828c5.957-1.158,10.447-.379,11.572,1.57,1.2,2.076-.519,6.66-4.816,11.489h0q-.355.4-.739.8a62.094,62.094,0,0,0-6.646-5.232,62.039,62.039,0,0,0-1.257-8.212Q103.475,19.009,104.4,18.828ZM104,30.871a56.116,56.116,0,0,1,4.53,3.682,55.951,55.951,0,0,1-4.516,3.746q.072-1.841.071-3.684Q104.084,32.743,104,30.871ZM115.99,48.816c-1.127,1.957-5.481,2.773-11.322,1.667q-1-.189-2.061-.451a61.979,61.979,0,0,0,1.2-8.313,61.822,61.822,0,0,0,6.625-5.319q.547.567,1.041,1.131h0a22.416,22.416,0,0,1,4.349,6.938A5.472,5.472,0,0,1,115.99,48.816Z" transform="translate(-60.855 -3.622)"></path> </g> </svg>
