<svg xmlns="http://www.w3.org/2000/svg" xmlns:xlink="http://www.w3.org/1999/xlink" width="40" height="40" viewBox="0 0 62 62"> <defs> <clipPath id="clip-svelte"> <rect width="62" height="62"></rect> </clipPath> </defs> <g id="svelte" clip-path="url(#clip-svelte)"> <path id="Path_549" data-name="Path 549" d="M236.565,252.758c10.623-17.138-10.672-34.794-25.807-24.906l-14.394,9.177c-6.97,4.54-10,13.261-5.746,22.224-10.627,16.122,10.052,35,25.807,24.917l14.394-9.177C238.65,269.837,240.447,260.944,236.565,252.758Zm-36.037-9.794,14.373-9.172c9.442-5.652,20.314,4.231,16.4,13.44a19.368,19.368,0,0,0-6.894-3.5,3.416,3.416,0,0,0-5.106-3.646l-14.4,9.14c-3.561,2.462.236,7.525,3.756,5.4l5.489-3.5c12.318-6.951,23.977,9.739,12.519,17.919l-14.373,9.172c-8.661,5.538-20.449-3.334-16.4-13.441a20.269,20.269,0,0,0,6.894,3.5,3.44,3.44,0,0,0,5.143,3.677l14.368-9.171c3.545-2.659-.261-7.471-3.751-5.4l-5.51,3.5C200.854,268,188.924,251.144,200.528,242.964Z" transform="translate(-182.703 -225)"></path> </g> </svg>